<svg xmlns="http://www.w3.org/2000/svg" width="480" height="600" viewBox="0 0 480 600"><defs><linearGradient id="g" x2="1" y2="1"><stop stop-color="#03111f"/><stop offset="1" stop-color="#0c2b60"/></linearGradient></defs><rect width="480" height="600" rx="28" fill="url(#g)"/><rect x="24" y="22" width="150" height="38" rx="19" fill="#16376b"/><text x="42" y="47" fill="white" font-family="Arial" font-size="13" font-weight="700">To: VIP Clients</text><text x="194" y="47" fill="white" font-family="Arial" font-size="13" font-weight="700">Subject: Your next service is due</text><text x="28" y="170" fill="#5a8bff" font-family="Arial" font-size="19" font-weight="700" letter-spacing="4">SERVICE REMINDER</text><text x="28" y="238" fill="white" font-family="Arial" font-size="53" font-weight="700">Keep things</text><text x="28" y="290" fill="#4c86ff" font-family="Arial" font-size="53" font-weight="700">running</text><text x="28" y="342" fill="white" font-family="Arial" font-size="53" font-weight="700">smoothly</text><text x="28" y="382" fill="#d5dbea" font-family="Arial" font-size="19">Book your next service before the busy weeks hit.</text><ellipse cx="248" cy="458" rx="174" ry="30" fill="#132a4e"/><path d="M104 427c25-44 67-67 125-67s104 25 130 67l32 8c11 3 18 13 18 24v29H76v-29c0-11 7-21 18-24Z" fill="#111820" stroke="#53637b" stroke-width="4"/><circle cx="139" cy="484" r="35" fill="#0e1724" stroke="#61718b" stroke-width="5"/><circle cx="348" cy="484" r="35" fill="#0e1724" stroke="#61718b" stroke-width="5"/><rect x="30" y="405" width="174" height="56" rx="28" fill="#3a79ff"/><text x="58" y="440" fill="white" font-family="Arial" font-size="23" font-weight="700">Book service →</text><rect y="525" width="480" height="75" fill="#07111d"/><text x="30" y="565" fill="#e6ecf7" font-family="Arial" font-size="17">Certified Technicians   Genuine Parts   Quick &amp; Reliable</text></svg>