<svg xmlns="http://www.w3.org/2000/svg" width="480" height="600" viewBox="0 0 480 600"><defs><linearGradient id="g" x2="1" y2="1"><stop stop-color="#7c1d5a"/><stop offset="1" stop-color="#c0267c"/></linearGradient></defs><rect width="480" height="600" rx="28" fill="#fffdfb"/><rect width="480" height="92" rx="28" fill="url(#g)"/><text x="28" y="38" fill="white" font-family="Arial" font-size="15" font-weight="700">To: Clients gone quiet</text><text x="28" y="65" fill="#fce7f3" font-family="Arial" font-size="13">Subject: We’d love to see you again</text><rect y="92" width="480" height="220" fill="#efd3c2"/><circle cx="165" cy="177" r="44" fill="#3b251a"/><rect x="112" y="222" width="106" height="100" rx="48" fill="#202126"/><circle cx="362" cy="213" r="47" fill="#b34c86" stroke="white" stroke-width="4"/><path d="M346 207c0-7 5-12 12-12 5 0 8 3 10 7 2-4 5-7 10-7 7 0 12 5 12 12 0 15-22 29-22 29s-22-14-22-29Z" fill="none" stroke="white" stroke-width="3"/><text x="334" y="263" fill="white" font-family="Arial" font-size="13" font-weight="700">WE MISS YOU</text><path d="M0 300c95-24 165 36 254 28 84-8 146-48 226-35v307H0Z" fill="#fff"/><text x="154" y="383" fill="#9f1c67" font-family="Arial" font-size="14" font-weight="700" letter-spacing="5">WELCOME BACK</text><text x="78" y="460" fill="#0d1b3b" font-family="Georgia" font-size="54" font-weight="700">Ready when</text><text x="116" y="516" fill="#0d1b3b" font-family="Georgia" font-size="54" font-weight="700">you are</text><text x="88" y="551" fill="#667085" font-family="Arial" font-size="17">A little something special to welcome you back.</text><rect x="142" y="566" width="196" height="0" rx="14" fill="#a11e6b"/><rect x="150" y="552" width="180" height="42" rx="12" fill="#a11e6b"/><text x="190" y="578" fill="white" font-family="Arial" font-size="19" font-weight="700">Book again →</text></svg>